<?xml version="1.0"?><svg version="1.2" baseProfile="tiny-ps" viewBox="0 0 300 300" xmlns="http://www.w3.org/2000/svg" xmlns:xlink="http://www.w3.org/1999/xlink"><title>nasvih</title><g><g fill="#e0d7c6" transform="matrix(.1 0 0 -.1 0 300)"><path d="M0 1500V0h3000v3000H0V1500z"/></g><g fill="#bfb098" transform="matrix(.1 0 0 -.1 0 300)"><path d="M0 1500V0h167l33 112c61 213 82 277 95 294l12 18-28-128c-15-70-34-144-42-164-8-21-17-58-21-84l-7-48h2687l-8 73c-5 39-15 113-24 164-8 50-16 102-18 115-1 13-5 29-9 35s-9 26-11 44c-3 19-9 47-16 63-6 16-8 31-6 33 15 16 99-319 114-459l7-63 38-3 37-3v3001H0V1500zm1310 209c0-3 9-16 20-29s20-27 20-33v-9l-16 6c-9 3-34 6-57 6l-42 1-18 13-18 14 12 48c6 27 14 56 16 64l4 14 39-44c22-25 39-48 40-51zm267 56c7-20 3-23-35-31l-32-6v14c0 20 20 38 42 38h19l6-15zm179-176 6-11-15-15-15-15-21 7c-11 3-21 11-21 16v9h40v10c0 13 17 13 26-1zm69-229 6-10-15 6c-18 7-21 14-7 14 6 0 13-4 16-10zm80-108 45-89 43-20c23-12 136-58 251-104l210-83 71-47 71-48 72-80c40-43 72-81 72-83s-16-2-35 0l-34 4-31-13c-16-8-30-17-30-21 0-17-16-7-27 17l-11 25 9 6 9 5-17 25-17 26-17-24-18-23-7 18c-3 9-11 17-18 16-6-1-19 1-28 5l-17 8-30-22c-17-11-45-41-62-65-18-25-37-45-42-45h-9l6 16c3 9 6 23 6 33 0 9 9 27 20 39s20 23 20 26-16 10-36 15l-37 10-30-22c-27-20-89-81-164-160l-26-27h-16c-10 0-26-8-37-19-11-10-30-21-41-25l-20-6v29l9-5 8-5v38l55 34c30 19 57 40 59 47l5 12h-9c-5 0-24-9-42-20s-41-20-51-20h-18l6-9 5-10-19-6c-23-7-44-3-53 10-12 15-9 25 6 25 7 0 19 7 27 16 7 8 40 28 73 43l61 28 45 40c25 22 65 54 89 71l44 32h-31c-35 0-170-40-252-75-30-13-84-35-120-49l-65-25 25 19c14 11 44 30 66 41 23 12 59 37 80 56 21 18 49 36 61 39l23 6-6 9-6 10-18-6-18-6-7 11-6 10-50-6-49-7v10c0 5 11 15 24 21l24 11-1 18-2 18 60 6 60 6-30 2c-16 1-48 8-69 14l-39 12-3 18c-1 10-8 25-14 32l-12 15h-47l-48-45c-26-25-67-64-91-86-50-47-67-45-28 3 15 18 50 64 77 102s60 80 74 94c27 26 30 37 16 46l-9 6 10 47c16 82 18 93 23 93 2 0 25-40 50-88zm-836-184-1-33-5 13-5 12h-19c-11 0-30-5-41-11l-20-11 6 11c6 9 71 48 84 51 1 0 2-15 1-32zm-39-31c0-7-9-30-20-52s-20-45-20-51c0-7-10-30-22-51l-23-40-28 8c-29 8-75 12-114 10l-23-1v-36l33-33c17-19 42-41 55-49l23-15-6-15-6-15 13-9 13-8h-26l7-12 7-13-20 18c-11 9-25 17-32 17-6 0-14 6-17 14s-26 31-51 50l-46 36h-37l6-42c4-24 11-44 16-46 4-2 8-8 8-14v-9l-20 6c-12 4-36 22-55 40l-34 34-32-16-32-16-4-18-5-18-23 15-24 15-14-28c-8-15-21-47-28-71l-12-43-8 13-7 12-16-13-16-13-14 5-14 6 4 43c3 24 7 52 9 64l4 20 81 68 80 67 86 45 86 45 15-5 14-6-5 9-5 8 37 16c20 9 75 29 121 46l83 30 13-5 13-5 7 10c9 15 25 14 25-2zm573-162-28-35h-15l-15 1 40 34c22 19 41 35 43 35s-10-16-25-35zm1085-215c7-11 16-20 21-20h9l-5 23-4 22 12-20c14-21 58-222 59-264v-24l-7 7c-5 4-8 11-8 14-1 4-6 16-12 27s-11 23-12 28c0 4-8 21-17 39-20 39-64 188-55 188 3 0 12-9 19-20zm-383-50c-3-5-10-10-16-10-5 0-9 5-9 10 0 6 7 10 16 10h15l-6-10zm260-9 6-10-20-10-19-11-5 15-6 14 12 5c19 7 25 7 32-3zM1358 482l3-22-16-6-17-7-15 16-16 15 7 17 6 16 22-3 23-3 3-23zm707 488c11-5 25-9 30-9l10-1-15 10c-8 5-22 9-30 9h-15l20-9zm143-27c7-3 16-2 19 1 4 3-2 6-13 5l-19-1 13-5zm312-143c0-5 5-10 11-10h10l-6 10c-3 6-8 10-11 10-2 0-4-4-4-10zM939 985l-26-14-69-7c-38-4-75-10-83-14l-13-7 78 5 79 4 33 14c17 7 32 18 32 23 0 13 1 13-31-4zm1774-385c6-16 13-27 15-25 7 7-8 55-17 55h-9l11-30z"/></g><g fill="#a68871" transform="matrix(.1 0 0 -.1 0 300)"><path d="M0 1500V0h159l26 83c15 45 49 172 77 282l50 200 30 70 30 70 62 63c33 34 82 76 107 92 53 35 197 98 317 140 91 32 160 70 201 111l26 26-3-62-4-62 16-54 16-53-10-10c-5-5-10-24-11-40l-1-31-22 70-22 70-5-15c-3-8-3-49 2-90l7-76 18-39c10-22 20-43 22-47 9-19-23-5-55 22l-34 30h-34l57-57c31-32 71-74 90-93 49-52 90-80 121-87l27-5v-12c0-6-3-21-6-33l-6-23h-57l-10-17-10-18-1 13v13l-22-12-21-11 19-11c10-6 21-13 24-17 3-3 13-9 23-13l17-6 1-38 1-38 12 45 12 45 7-19c8-20 17-17 21 6 1 7 7 22 14 33l11 20 1-25c0-14 4-31 9-38l8-14 16 40c9 22 21 43 26 46l10 6 6-10 6-10 10 5 9 6v-63c0-35-4-102-10-148-5-47-12-103-14-125l-5-40 19 55c10 30 17 57 14 61-2 4 0 29 6 56 5 26 12 76 14 110 5 73 10 83 39 83h22l13 20 12 20h15c8 0 15 4 15 9s13 14 30 19c33 12 109 62 135 89 28 29 112 79 245 144 136 68 224 119 216 126-2 3-15-1-27-8-13-7-37-16-54-20-54-14-238-86-327-128-104-49-127-52-70-10 23 17 42 36 42 43s10 21 22 32c11 10 41 46 65 78l43 59-6 21c-4 12-15 33-26 49l-19 27h-59l-25-40c-13-21-33-44-44-49l-19-10-6-26c-4-14-11-25-16-25-6 0-10-7-10-15v-16l-30 16-31 16-29-21c-56-40-30-5 62 85 93 90 178 197 178 224 0 8 13 42 29 75 16 34 32 80 36 103l7 42-29 14c-16 9-45 18-65 22l-37 7 6-53c3-30 12-67 19-83 17-35 17-33-1-33h-16l-13 31c-18 41-34 133-31 174 1 17 4 44 5 60l2 27 12-55 11-55 42-7c85-14 114-39 166-144 19-38 42-76 50-82 8-7 124-56 258-110l244-98 58-38 58-39 77-84 77-85-1-14c-1-7 1-12 5-9 8 5 72-148 107-255 26-79 67-276 79-372l6-58h69v3000H0V1500zm1700 908c0-17-19-7-43 22-14 17-30 30-35 30h-10l6 22 5 22 39-45c21-24 38-47 38-51zm-328-185c24-22 23-38-5-50l-23-11-47 20c-26 11-47 24-47 29 0 14 34 28 69 29h34l19-17zm2-183-4-25 58 3 59 4 37-32 36-32v-31l-17 14c-28 22-56 36-89 43l-30 7-108-21-107-21-47 7c-26 3-53 11-59 16l-13 10 6 9 5 9h-21l3 13 2 12 35 5 35 6 34-9 35-9 11 16 12 16 39 9c21 5 51 8 65 8l27-1-4-26zm-364-100c0-5-7-10-16-10h-15l6 10c3 6 10 10 16 10 5 0 9-4 9-10zm621-27 23-38 14-75c7-41 15-96 18-122l6-48h8c5 0 12 5 15 10 7 12 26 14 23 3-1-5 5-20 15-34l17-26-6-16c-7-20-30-28-59-21l-23 6-5 28-6 27-21 6-20 5 6-9 5-9h-8c-16 0-33 24-33 47v23h-17c-10 0-26-6-35-13l-16-13 1-20 2-19-40 2-40 3-10 13c-12 16-80 67-88 67-4 0-4-12-1-28l6-27-91-2-91-2-20-11c-28-15-28-15 23 132l19 57 18 16 17 16 18-28c25-37 65-68 90-69 11-1 37-4 58-8l37-7 35 36 36 35h22c32 0 46 12 57 50l10 33-6 23c-5 20 1 44 11 44 1 0 13-17 26-37zm123-61 5-8-35-13c-39-14-47-12-39 10l6 15 29 2 29 2 5-8zm-763-152c10-6 19-15 19-20v-10h-59l-6 10c-7 12 2 30 16 30 6 0 19-5 30-10zm113-52c-8-18-17-40-20-50-7-20-33-28-62-17l-22 8v24c0 44 26 61 97 66l22 1-15-32zm296-77c5-11 10-22 10-24 0-9-30-1-41 10l-11 11 6 11c11 17 24 13 36-8zm-513-80c14-23 5-35-14-20-14 12-18 39-5 39 4 0 13-9 19-19zm450-67c-3-3-12-4-19-1l-13 5 19 1c11 1 17-2 13-5zm-179-604 11-30-8-5c-5-2-17 5-27 16l-18 20 13 8 14 9-8 12-8 13 10-6c6-4 16-20 21-37zm662 36c0-3-4-7-9-11l-10-5-6 10-6 10h15c9 0 16-2 16-4zm-35-36c-3-5-10-10-16-10-5 0-9 5-9 10 0 6 7 10 16 10h15l-6-10zm-653-52c4-37 4-44-1-52l-4-10-8 20c-4 10-8 27-8 37l-1 17h10c6 0 11-6 12-12zm536-20-3-23h-14c-8 0-16 6-19 14l-5 14 12-7 11-7-6 15-6 16h33l-3-22zm-228-23c-13-14-27-25-32-25-9 0 42 49 51 50 3 0-6-11-19-25zm-72-241 3-21-13-10-13-11-22 9-23 8v52l33-3 32-3 3-21zm197 1206c3-5 10-10 16-10 5 0 9 5 9 10 0 6-7 10-16 10h-15l6-10zm130-90c3-5 10-10 16-10 5 0 9 5 9 10 0 6-7 10-16 10h-15l6-10zm-653-595v-30l5 18c2 9 2 23 0 30l-5 12v-30zm1338-331c-40-64-72-137-107-244-18-58-40-119-48-137-8-17-15-40-15-52v-21h-9c-6 0-22-11-37-25l-27-25 17-6 16-6v-40l-16 6-17 6-19-17-19-17-22 24-22 24 19-15 19-14-5 22-6 22 19 6 19 6-6 10-5 9-11-6-10-7 6 21 7 20-13 8-12 8-4-12c-2-7-10-12-18-12h-14l-12-25-11-25 13-25 13-25-6-7-7-6v23h-73l18-20 18-20 1-40 1-40h644l-5 163c-2 89-5 170-5 180 0 9-4 17-9 17h-9l5 15 6 15h-23l7 12c9 14 16 53 15 83v20l-16 11c-8 6-15 17-15 24v12l-15-12c-8-7-40-64-71-127-30-64-57-113-59-111-5 5 53 149 66 163 5 5 9 13 9 17v8l-19-12-19-12 5-13 5-13h-20c-12 0-24-4-27-10l-6-10h15c9 0 16-4 16-9v-9l-34 1-34 1 16 13 17 12-12 1c-22 0-43-12-43-26v-14h-32l6 33c4 17 9 41 11 52 1 11 8 33 14 48l11 28 10-6 9-6-6-31-6-31 12 7 12 8-5 13-5 14 10 3c5 2 11 13 14 26l4 22h-9c-4 0-10-6-13-12l-4-13-14 13-13 12h19l2 51c1 28 5 60 8 70l6 19h-10c-5 0-19-16-31-36zm70-291c0-5-4-14-9-22l-9-14-16 6-16 6 6 16 6 15h19c10 0 19-3 19-7zM2135 80l6-10h-10c-5 0-13 5-16 10l-6 10h10c5 0 13-4 16-10zm545 610c0-5 4-10 9-10 6 0 13 5 16 10l6 10h-15c-9 0-16-4-16-10zm-36-60c3-14 6-34 6-46 0-11 6-28 13-38l13-17-2 28c-1 15-3 35-3 44-1 8-8 24-17 35l-15 19 5-25zm-64-10v-20h30v40h-30v-20zm-145-20-6-10h32l-6 10c-3 6-8 10-10 10s-7-4-10-10zM486 577l6-17-17 6-18 7 5-14c3-8-1-28-8-45l-13-32-2-56-2-56-12 10c-6 5-14 7-17 5-3-3-8 8-11 25l-6 30h-23l6-16c3-9 9-33 12-55l7-39h-16c-9 0-19 5-22 10l-6 10-10-5c-5-4-9-13-9-21 0-9-7-22-15-31l-15-15 1-46c1-79-7-208-15-220l-7-12h256l-12 268c-14 297-14 297-32 315l-12 12 7-18zm2054-22c-7-9-10-18-7-21s10 4 17 15c13 25 8 27-10 6zm127-55c3-11 7-20 9-20s4 9 4 20-4 20-9 20h-9l5-20zm150-166c-3-3-1-20 3-37 5-18 16-92 26-165l17-132h27l-4 23c-4 18-16 103-21 152-1 6-7 43-15 83-13 70-21 88-33 76zm-109-61c7-3 16-2 19 1 4 3-2 6-13 5l-19-1 13-5zm-1510-30c0-5-2-12-3-18-2-5-3-16-4-22l-1-13h-40v-17c1-10 12-31 25-47l24-30 5 25c3 13 7 48 9 77l4 52h-8c-5 0-10-3-11-7zm90-170c7-3 16-2 19 1 4 3-2 6-13 5l-19-1 13-5zm652-4V59l10 6c6 3 10 8 10 11 0 2-4 4-10 4-5 0-10-5-10-11zm-902-17-18-3V36c0-6 5-17 12-24l12-12h146v51l-10-6-10-6 5-10 6-9h-12c-16 0-91 22-104 30-5 4-18 5-27 2zm312-31V0h31l-3 17c-2 9-9 18-15 21l-13 4V21z"/></g><g fill="#7e5c4c" transform="matrix(.1 0 0 -.1 0 300)"><path d="M0 1500V0h151l15 37c9 20 36 114 60 208 85 324 95 358 125 418l30 60 66 61c36 33 77 69 90 80 28 22 192 94 273 121 88 28 151 57 204 93l50 33 17 37 17 37 11-28c6-16 11-38 11-49v-20l-16 13-16 13 4-64c3-36 11-89 19-118l14-54 38-41c20-22 35-42 33-44-7-7 50-60 72-67 12-4 34-20 48-34l25-27 11 20c17 30 123 127 204 187l72 53 41 55c46 62 49 76 23 122-23 41-35 81-39 133-2 22-4 47-5 55s2 46 6 84l8 68-11-6-11-7v21h-40v-14c0-17-24-27-45-19l-16 5 3-12c2-7-2-14-8-17l-11-4-16 34c-17 35-64 87-78 87-5 0-27 8-49 17l-40 18 2 35 3 35-36 3-35 3-19-21c-20-22-45-26-62-9l-12 12-16-6-15-7 6-26 7-26-43-43-43-44-1-43-1-43h27l28-1 20-22 21-22h52c52 1 137 18 190 39l28 11 15-14 14-15-9-5c-5-4-12-20-16-36l-6-29-32-5c-18-2-59-10-92-16s-81-14-106-17l-45-5-32 27-31 26-28 2-28 2-57 85-57 85-31-3-30-3-14 33c-8 18-19 66-25 106l-11 72 6 25c3 14 10 25 14 25 13 0 17-32 8-57l-7-23 6-15 5-16 11 4c6 2 15 16 20 31l9 27-23 34-24 34-20 3-20 3v30h60l-1 10c0 6-4 23-9 39l-8 29 14 11c19 15 49 98 59 163 9 59 9 59 63 130l39 53 31 15 30 15h118l29 21 29 22 41-6 42-5 43-23 44-23 22-39 21-39 30 4 29 5 15-21c8-11 14-27 14-36v-15l49-52c26-29 53-53 59-53s20-12 31-26l21-27v-57h48l13-17 14-17-17 7-17 6-32-22c-18-12-37-30-43-39l-10-16 12-26 12-26h52l-4 30-5 31 11-4 11-4 3-26 3-27 11 6 11 7-7-39c-4-21-10-57-13-79l-6-40-15-17-15-18h-49l7-52c4-29 11-61 17-70l9-18h55l44-22 45-23 47-89 46-90 36-18c19-10 125-54 235-97s229-95 264-115l64-35 49-48c28-26 70-72 94-101l45-53 48-117 48-117 29-112c16-62 37-167 47-233l17-120h66v3000H0V1500zm1277 1128-5-13-1 19c-1 11 2 17 5 13 3-3 4-12 1-19zm-157-8c0-5-4-10-10-10-5 0-10 5-10 10 0 6 5 10 10 10 6 0 10-4 10-10zm407-36c-7-8-57 15-57 26v11l31-16c17-9 29-19 26-21zm-470 6c3-11 9-20 14-20s9-7 9-16v-15l-17 3-18 4 3 13c2 8-5 22-14 32l-17 19h35l5-20zm-36-10h19v-21l-17 3c-10 1-24-1-31-5l-12-8-21 6-20 7 4 11c2 6 14 14 28 17l24 6 3-8c2-4 12-8 23-8zm362-19 5-20-22 16c-13 10-23 23-23 30v12l17-9c10-5 20-18 23-29zm-78-28 7 18 14-12c15-12 19-38 7-40-5-1-25-3-45-4l-37-2 16 31 16 31 7-20 8-20 7 18zm-382-22c-13-11-23-24-23-29s-6-15-14-21l-14-11-5 20-5 20h-44l12 15 12 15 9-6 9-5v21h43l42-1-22-18zm120-2-6-21-8 14c-13 19-11 28 5 28h14l-5-21zm577 14c0-5 23-32 50-62 28-30 50-58 50-63v-8h-89l-7 11-7 11 12 8 12 7-45 13c-25 7-46 16-46 20 0 10 53 69 63 70 4 0 7-3 7-7zm-450-28c0-8-4-15-10-15h-9l5 15c4 8 8 15 10 15s4-7 4-15zm-353-38c-12-13-25-22-30-20l-7 4 10 20 11 19h38l-22-23zm-47-57c0-5-7-10-15-10s-15 5-15 10c0 6 7 10 15 10s15-4 15-10zm565-990-60-28-41-1-40-1-19 14-20 14 40 6c22 4 56 10 75 15s55 9 80 9h45l-60-28zm13 550c-37-10-83-26-102-35l-36-17-29 12-29 12-89-11-88-11-25-19-25-19 3-48 3-49 12-12c7-6 40-21 75-32l63-21 45 26 45 26 12 45 12 45 18 10 19 10 19-18c10-9 19-23 19-29 0-17 35-39 96-60l50-18 50 36c28 21 58 37 66 37h15l13 24 13 25-20 33c-10 18-34 43-53 55l-33 23-26-1c-14-1-56-9-93-19zm127-40 6-10h-15c-9 0-16 5-16 10 0 6 4 10 9 10 6 0 13-4 16-10zm-490-80c-10-11-23-20-29-20l-11 1 24 19c30 26 39 26 16 0zm735-487c0-15 5-46 10-67l9-39 24-25 25-24 10 6c8 5 14 24 38 117l4 16-37 16c-21 9-48 19-60 22l-23 6v-28zm15-425c-8-18-30-58-49-88-20-30-36-57-36-61s9-9 21-12l20-5-11 13-11 13 13 9c8 4 24 23 37 41l22 32h14c7 0 23 9 36 20l24 19-11 1c-6 0-16 11-22 25-16 34-30 31-47-7zm-639-46-7-11 7-26c6-24 19-33 27-17 2 4-1 20-8 36l-12 29-7-11zm408-103c-72-76-87-89-102-89h-14l12-15 12-14-7-10c-3-6-26-25-51-43l-46-33-19-37c-21-40-19-44 12-28l19 11 36-10 35-10 6 15c3 8 9 14 14 14h9v-65l20 25c11 14 18 31 17 39l-2 14 40 28c22 15 64 39 93 54 57 28 57 27 41 57l-11 21 35-6 34-5 22 29 22 29h-9c-5 0-15-7-22-15l-12-15h-56l-11 32c-14 40-39 68-61 68h-16l-40-41zm-373-5 22-37-10-28-11-27 11-11c6-6 17-11 24-11h13v44l38-35c20-20 52-42 70-49l32-12 15 12 16 13-18 19-17 19-18-4-18-5-5 8-5 8 16 6 15 6-6 11-7 10-28-6-29-6-17 25c-9 15-37 40-61 56l-45 31 23-37zm272-329c-3-9-3-18-1-21 3-3 8 4 11 16 6 23-1 27-10 5zm877-62c-12-48-39-288-40-350V0h88l12 51 12 50-18 15-19 16 19-6 19-6-13 15-12 15 13 1c8 1 17 1 22 0 13-2 8 11-10 24l-16 12 8 14c5 7 10 25 11 39s0 19-3 13c-2-7-9-13-14-13h-9v62l-20 25-20 25 6 39c9 54-1 49-16-8zm250 28c-12-24-13-31-1-31 5 0 11 11 13 25 6 30 2 32-12 6zM495 268l-7-18 6-17 7-16 10 10 10 10-10 24-9 24-7-17zm1977-35c3-7-12-49-33-98-4-11-17-46-27-77l-19-58h67l-2 8c-2 4 3 32 9 62 31 147 33 170 12 170-5 0-8-3-7-7zM503 193c-7-12-13-36-13-54v-33l16 15 15 16-3 39-3 39-12-22zm4-91-8-12-10 5-9 6V66c0-43 9-66 25-66h13l4 23c2 12 1 38-2 57l-5 35-8-13z"/></g><g fill="#463632" transform="matrix(.1 0 0 -.1 0 300)"><path d="M0 1500V-1l77 3 77 3 19 50c10 28 45 154 77 282 56 220 84 307 119 363 19 30 94 105 151 150l42 33 91 39c51 22 134 55 186 73l93 34 69 41 68 42 7 35 7 35-12 39-12 39-28 33c-16 17-45 58-65 90l-37 57h-49l-16 26c-20 30-74 216-74 254v26l12 12c7 7 22 12 35 12h23v10c0 5-7 28-16 50l-17 41 25 27c14 15 31 37 37 49l11 22v122l20 39 20 39 71 47 72 47 57-6 57-6 22 15 22 16 57-5 57-4 50-19c28-10 59-27 69-37 11-9 25-16 30-15 6 1 27-2 47-6l36-8-1-52v-52l28-37c16-21 47-50 70-65l41-28v-88l33-8 33-9 9-25c15-39 12-76-15-181-27-104-37-123-66-123-26 0-28-9-18-65l9-49 11-7c7-4 28-10 48-13s50-14 67-25l31-19 46-89 46-90 58-26c32-14 138-57 235-95s206-86 241-105l64-36 49-48c28-26 70-72 94-101l45-53 48-117 48-117 29-112c16-62 37-167 47-233l17-120h66v3000H0V1500zm1334 1174 16-6v-57l11-6c5-4 21-8 35-10l24-2v9c0 5-5 18-10 29l-11 19 6 10 6 10 22-13c12-6 38-24 58-39 20-16 41-28 47-28 13 0 102-80 102-92 0-6 11-19 24-29 26-20 96-128 96-148 0-19-22-12-27 10l-6 21-20-6-20-5-39 20c-21 11-43 28-50 38l-12 19-13-5-13-5v24l-14-11-13-11-17 6-16 6v40l31 39 31 39-4 11c-4 11-59 35-105 46l-22 5-13-27-12-26 12-19 12-19-22-16c-13-8-30-15-40-15-20 0-24-16-6-22l12-4-8-12-7-12h-58l-6 10c-3 6-16 10-27 10h-21l-19 17-20 17-30-17c-35-20-55-22-61-4l-4 12-20-17-20-18h-53v23c0 13-5 28-12 35-13 13-32 16-24 4 2-4 1-14-4-22l-9-14-7 6-7 7 17 26 16 25h-34l-24-27c-13-16-31-40-40-55-9-16-20-28-24-28s-8-7-8-15c0-19-14-19-30 0l-12 15 6 15 6 16-10-6c-6-3-10-14-10-23v-18l-29-32c-16-17-31-39-33-48-2-10-9-19-17-22l-13-4 7 53 7 53 52 61c28 33 52 62 54 65 2 2 21 4 42 4l38-1 9 31 9 31 24 3c14 2 59 15 100 28 41 14 108 29 149 34 41 6 77 12 79 15 7 7 27 6 46-1zm-53-286c22-6 39-15 39-19v-7l-47 14c-25 8-49 16-51 19-9 9 19 5 59-7zm-521-108c-6-11-15-20-21-20h-10l11 20c6 11 15 20 21 20h10l-11-20zm440 358v-8h-58l-6-22-5-23 9-9 10-10v25l22-21c28-26 34-25 54 5 9 14 19 23 23 21 3-2 7 6 7 19l2 23-29 4-29 5v-9zm116 3c-4-7-5-15-2-18 9-9 19 4 14 18l-4 13-8-13zm51-691-68-17-15-15-15-15 7-37 7-38 16-5c9-2 28-11 43-19l26-14h45c25 0 48 3 51 8l4 7-38-3-38-4-28 16-29 15 13 1h12v33l18-16 17-16 35-2c19-1 47-2 63-1l27 2v13c0 8-9 22-20 32l-19 17-46 5c-25 3-45 9-45 13 0 8 44 27 74 32l20 3-25 11-24 12-68-18zm60-66c-3-3-12-4-19-1l-13 5 19 1c11 1 17-2 13-5zm-429 11c-33-18-36-25-8-18 23 6 70-4 70-15 0-4-20-20-45-35-25-16-45-33-45-38v-9h61l-6 10-6 10 7 12 7 11 11-15 11-15 58 5 57 4v12c0 6-7 29-14 51l-14 40-59 2-58 3-27-15zm276-316-29-30-27 5-26 5-16-24c-9-13-16-27-16-31v-6l53 7c28 3 64 8 80 11l27 6v22c0 12 6 28 12 34l13 13-15 9c-22 14-23 13-56-21zm116-89v-10h-22c-13 0-31-7-41-14l-18-14 73-4c71-3 96 0 71 9-7 3-13 11-13 18s-7 16-16 19c-23 9-34 7-34-4zm-290-46c-6-14-10-29-10-33v-8l30 5c17 2 33 9 36 14l6 10-21 19c-26 25-30 24-41-7zm115-4-30-8h35c19 0 46 4 60 8l25 8h-30c-16 0-43-4-60-8zm53-87c7-3 16-2 19 1 4 3-2 6-13 5l-19-1 13-5zm468-40 4-48 18-24c10-14 23-26 28-28l11-4 11 26c18 38 15 53-14 80l-27 25h24l-6 10c-3 6-17 10-30 10h-24l5-47zm-129 30c-12-19-276-160-309-165l-21-3-4-15-5-15 11 15 11 15v-11c0-6-6-17-14-23l-14-12 5-19c3-11 8-19 12-18 18 2 31-3 31-13 0-15 20-32 54-47l29-13 61 32c65 33 106 66 106 83 0 6 7 24 15 40 9 16 13 31 10 34s-1 10 3 16c15 19 34 92 30 112l-3 19-8-12zm-512-299c3-26 19-80 33-122l27-76 43-33 43-32 29 26c17 14 30 32 30 40 0 7 5 13 10 13 18 0 11 25-12 45-13 10-42 29-64 41-58 31-82 53-111 102-14 23-27 42-30 42s-2-21 2-46zm10-204c3-5 8-10 11-10 2 0 4 5 4 10 0 6-5 10-11 10h-10l6-10zm429-45c-3-8-3-19 0-24l7-10-42-31c-23-16-48-30-54-30-7 0-18-7-25-15l-12-15h19c22 0 114 56 126 77l8 14 19-6 18-6 6 9c3 5-2 18-10 30l-15 22h-40l-5-15zm-384-45v-20h15c17 0 18 2 9 24-9 23-24 20-24-4zm2-60v-25l5 13c2 6 2 18 0 25l-5 12v-25zm326-35c-27-32-40-45-88-84-49-41-33-47 23-10l46 30 6 20 6 19h28l6 21c11 32-2 34-27 4z"/></g><g fill="#0a3b83" transform="matrix(.1 0 0 -.1 0 300)"><path d="M0 1500V-1l77 3 77 3 19 50c10 28 45 154 77 282 56 220 84 307 119 363 19 30 94 105 151 150l42 33 91 39c51 22 134 55 186 73l93 34 69 41 68 42 7 35 7 35-12 39-12 39-28 33c-16 17-45 58-65 90l-37 57h-49l-15 23c-8 13-29 66-45 118l-30 94v71l12 12c7 7 22 12 35 12h23v10c0 6-11 38-25 73-14 34-28 73-30 87s-7 45-11 70l-7 45-23 28-24 29-1 41c0 23-3 62-6 87-4 25-6 71-5 103l1 58 53 62c29 34 54 64 56 67 2 2 21 4 42 4l38-1 9 31 9 31 24 3c14 2 59 15 100 28 81 27 177 44 282 49l67 4 12-15c6-8 16-14 21-14 6 0 27-13 48-30 21-16 42-30 48-30 13 0 102-80 102-92 0-6 11-19 25-30s44-52 67-91l43-72-2-130-2-130-11-30c-20-50-41-136-35-145 2-4 18-10 35-14l31-6 15-36 16-37-27-101c-15-56-32-112-38-126l-12-24-25-6-25-6 2-25c2-13 5-39 8-56l6-33 27-6c15-3 46-12 69-20l43-16 19-26c10-15 34-59 54-98l36-71 58-26c32-14 138-57 235-95s206-86 241-105l64-36 49-48c28-26 70-72 94-101l45-53 48-117 48-117 29-112c16-62 37-167 47-233l17-120h66v3000H0V1500z"/></g></g></svg>